<?xml version="1.0" encoding="UTF-8"?> <svg xmlns="http://www.w3.org/2000/svg" width="65" height="65" viewBox="0 0 65 65" fill="none"><path d="M32.5 63C49.3447 63 63 49.3447 63 32.5C63 15.6553 49.3447 2 32.5 2C15.6553 2 2 15.6553 2 32.5C2 49.3447 15.6553 63 32.5 63Z" stroke="black" stroke-width="3" stroke-miterlimit="10"></path><path d="M32.5001 52.7011C43.657 52.7011 52.7014 43.6567 52.7014 32.4998C52.7014 21.343 43.657 12.2985 32.5001 12.2985C21.3433 12.2985 12.2988 21.343 12.2988 32.4998C12.2988 43.6567 21.3433 52.7011 32.5001 52.7011Z" stroke="black" stroke-width="3" stroke-miterlimit="10"></path><path d="M32.5003 42.4025C37.9693 42.4025 42.4029 37.9689 42.4029 32.4999C42.4029 27.0308 37.9693 22.5973 32.5003 22.5973C27.0312 22.5973 22.5977 27.0308 22.5977 32.4999C22.5977 37.9689 27.0312 42.4025 32.5003 42.4025Z" stroke="black" stroke-width="3" stroke-miterlimit="10"></path></svg> 