<?xml version="1.0" encoding="UTF-8"?> <svg xmlns="http://www.w3.org/2000/svg" width="34" height="35" viewBox="0 0 34 35" fill="none"><g clip-path="url(#clip0)"><path d="M33.1579 29.1083C33.1579 27.6433 31.6395 26.2739 29.0984 25.2548C31.6085 24.2038 33.1579 22.8662 33.1579 21.4013C33.1579 19.9363 31.6395 18.5669 29.0984 17.5478C31.6085 16.4968 33.1579 15.1592 33.1579 13.6943C33.1579 12.2293 31.6395 10.8599 29.0984 9.84076C31.6085 8.78981 33.1579 7.45223 33.1579 5.98726C33.1579 2.64331 25.7206 0 16.5789 0C7.43728 0 0 2.64331 0 5.89172C0 7.35669 1.51845 8.72612 4.05952 9.74522C1.51845 10.7962 0 12.1656 0 13.6306C0 15.0955 1.51845 16.465 4.05952 17.5159C1.51845 18.535 0 19.9045 0 21.3694C0 22.8344 1.51845 24.2038 4.05952 25.2229C1.51845 26.2739 0 27.6115 0 29.1083C0 32.3567 7.4063 35 16.5789 35C25.7516 35 33.1579 32.3567 33.1579 29.1083Z" fill="#FF534A"></path></g><defs><clipPath id="clip0"><rect width="33.1579" height="35" fill="white"></rect></clipPath></defs></svg> 